<svg height="474pt" viewBox="0 -10 474.09751 474" width="474pt" xmlns="http://www.w3.org/2000/svg"><path d="m368.671875 270.179688 84.121094-61.113282c11.214843-8.148437 15.90625-22.59375 11.621093-35.78125-4.285156-13.183594-16.574218-22.109375-30.4375-22.105468h-104c-13.851562-.015626-26.121093-8.941407-30.402343-22.113282l-32.167969-98.886718c-4.285156-13.183594-16.570312-22.109376-30.429688-22.109376-13.863281 0-26.148437 8.925782-30.433593 22.109376l-32.09375 98.886718c-4.285157 13.1875-16.574219 22.113282-30.441407 22.113282h-104c-13.863281-.003907-26.152343 8.921874-30.4375 22.105468-4.289062 13.1875.40625 27.632813 11.621094 35.78125l84.121094 61.113282c11.242188 8.128906 15.96875 22.578124 11.695312 35.78125l-32.128906 98.878906c-4.28125 13.183594.414063 27.625 11.625 35.773437 11.214844 8.148438 26.398438 8.148438 37.617188.003907l84.117187-61.113282c11.214844-8.136718 26.390625-8.136718 37.601563 0l84.097656 61.113282c11.214844 8.144531 26.398438 8.144531 37.613281-.003907 11.214844-8.148437 15.90625-22.589843 11.625-35.773437l-32.128906-98.878906c-4.285156-13.1875.40625-27.632813 11.625-35.78125zm0 0" fill="#9bc9ff"/><path d="m472.023438 170.816406c-5.195313-16.597656-20.65625-27.828125-38.046876-27.636718h-104c-10.40625.019531-19.636718-6.683594-22.832031-16.585938l-32.089843-98.886719c-5.347657-16.492187-20.710938-27.660156-38.046876-27.660156-17.335937 0-32.699218 11.167969-38.046874 27.660156l-32.121094 98.886719c-3.195313 9.902344-12.425782 16.605469-22.832032 16.585938h-104c-17.332031-.003907-32.691406 11.152343-38.046874 27.632812-5.359376 16.480469.507812 34.539062 14.527343 44.726562l84.121094 61.117188c8.425781 6.101562 11.949219 16.945312 8.71875 26.832031l-32.105469 98.890625c-5.546875 16.480469.359375 34.65625 14.535156 44.726563 13.960938 10.375 33.066407 10.375 47.027344 0l84.109375-61.128907c8.410157-6.136718 19.816407-6.136718 28.226563 0l84.109375 61.113282c14.019531 10.226562 33.03125 10.246094 47.070312.050781 14.042969-10.191406 19.910157-28.273437 14.53125-44.769531l-32.136719-98.882813c-3.230468-9.886719.292969-20.730469 8.71875-26.832031l84.121094-61.117188c14.167969-10.078124 20.054688-28.25 14.488282-44.722656zm-23.9375 31.777344-84.117188 61.113281c-14.046875 10.167969-19.917969 28.246094-14.527344 44.726563l32.125 98.878906c3.210938 9.886719-.308594 20.71875-8.71875 26.828125s-19.796875 6.113281-28.207031.003906l-84.121094-61.109375c-14.007812-10.21875-33.015625-10.21875-47.023437 0l-84.121094 61.109375c-8.410156 6.109375-19.796875 6.105469-28.207031-.003906-8.410157-6.109375-11.929688-16.941406-8.71875-26.828125l32.125-98.886719c5.390625-16.480469-.480469-34.554687-14.527344-44.71875l-84.121094-61.113281c-8.410156-6.113281-11.929687-16.945312-8.714843-26.835938 3.214843-9.886718 12.429687-16.582031 22.828124-16.578124h104c17.339844.03125 32.71875-11.140626 38.046876-27.640626l32.121093-98.882812c3.207031-9.898438 12.425781-16.601562 22.832031-16.601562s19.625 6.703124 22.832032 16.601562l32.121094 98.875c5.320312 16.492188 20.683593 27.667969 38.015624 27.648438h104c10.398438-.003907 19.613282 6.691406 22.828126 16.578124 3.214843 9.890626-.304688 20.722657-8.714844 26.835938zm0 0" fill="#1e81ce"/></svg>