<svg xmlns="http://www.w3.org/2000/svg" width="132.015" height="135.015" viewBox="0 0 132.015 135.015">
  <g id="Groupe_23" data-name="Groupe 23" transform="translate(-369.546 -127.5)">
    <path id="Tracé_67" data-name="Tracé 67" d="M450.89,209.89c-22.4,22.4-48.951,27.1-57.756,26.624-6.556-8.9-7.4-13.606-10.134-20.061,5.082-6.2,18.735-13.062,25.043-14.666l8.409,8.763c3.82-1.143,12.276-3.507,21.935-13.163s11.8-17.893,12.944-21.713l-8.545-8.63c2.659-9.1,9.094-18.983,14.667-25.043,6.456,2.733,11.156,3.578,20.062,10.134C477.989,160.939,473.291,187.488,450.89,209.89Z" transform="translate(21.5 23.455)" fill="none" stroke="#f7f7f7" stroke-miterlimit="10" stroke-width="5"/>
    <line id="Ligne_18" data-name="Ligne 18" x2="33" transform="translate(416.046 186)" fill="none" stroke="#f7f7f7" stroke-miterlimit="10" stroke-width="5"/>
    <line id="Ligne_19" data-name="Ligne 19" x2="33" transform="translate(416.046 198)" fill="none" stroke="#f7f7f7" stroke-miterlimit="10" stroke-width="5"/>
    <line id="Ligne_20" data-name="Ligne 20" x2="21" transform="translate(416.046 210)" fill="none" stroke="#f7f7f7" stroke-miterlimit="10" stroke-width="5"/>
    <line id="Ligne_21" data-name="Ligne 21" x2="33" transform="translate(416.046 136)" fill="none" stroke="#f7f7f7" stroke-miterlimit="10" stroke-width="5"/>
    <line id="Ligne_22" data-name="Ligne 22" x2="33" transform="translate(416.046 148)" fill="none" stroke="#f7f7f7" stroke-miterlimit="10" stroke-width="5"/>
    <line id="Ligne_23" data-name="Ligne 23" x2="21" transform="translate(416.046 160)" fill="none" stroke="#f7f7f7" stroke-miterlimit="10" stroke-width="5"/>
    <line id="Ligne_24" data-name="Ligne 24" x2="18" y2="18" transform="translate(381.046 189)" fill="none" stroke="#f7f7f7" stroke-miterlimit="10" stroke-width="5"/>
    <line id="Ligne_25" data-name="Ligne 25" x1="18" y2="18" transform="translate(381.046 189)" fill="none" stroke="#f7f7f7" stroke-miterlimit="10" stroke-width="5"/>
    <rect id="Rectangle_18" data-name="Rectangle 18" width="35" height="36" transform="translate(372.046 180)" fill="none" stroke="#f7f7f7" stroke-miterlimit="10" stroke-width="5"/>
    <path id="Tracé_68" data-name="Tracé 68" d="M392.727,133l-11.818,17.727L375,141.864" transform="translate(5.864 5.864)" fill="none" stroke="#f7f7f7" stroke-miterlimit="10" stroke-width="5"/>
    <rect id="Rectangle_19" data-name="Rectangle 19" width="35" height="35" transform="translate(372.046 130)" fill="none" stroke="#f7f7f7" stroke-miterlimit="10" stroke-width="5"/>
  </g>
</svg>
