<svg xmlns="http://www.w3.org/2000/svg" width="93.174" height="92.047" viewBox="0 0 93.174 92.047">
  <g id="Groupe_18" data-name="Groupe 18" transform="translate(105 -150)">
    <path id="Tracé_54" data-name="Tracé 54" d="M-104,159.548A8.547,8.547,0,0,1-95.452,151h74.079a8.547,8.547,0,0,1,8.548,8.548v54.135a8.547,8.547,0,0,1-8.548,8.548h-34.19l-15.081,17.93a2.849,2.849,0,0,1-4.864-2.014V222.23H-95.452A8.547,8.547,0,0,1-104,213.682Z" fill="none" stroke="#f7f7f7" stroke-miterlimit="10" stroke-width="2"/>
    <path id="Tracé_55" data-name="Tracé 55" d="M-59.125,175.438v17.438H-94V158h26.156" transform="translate(18.149 12.7)" fill="none" stroke="#f7f7f7" stroke-miterlimit="10" stroke-width="2"/>
    <path id="Tracé_56" data-name="Tracé 56" d="M-91,175.438l8.719,8.719L-61.937,158" transform="translate(23.702 12.785)" fill="none" stroke="#f7f7f7" stroke-miterlimit="10" stroke-width="2"/>
  </g>
</svg>
