<svg xmlns="http://www.w3.org/2000/svg" width="90.962" height="92" viewBox="0 0 90.962 92">
  <g id="Groupe_19" data-name="Groupe 19" transform="translate(56 -145.793)">
    <path id="Tracé_57" data-name="Tracé 57" d="M6.056,213.77v23.023H-55v-90H6.056v33.488" transform="translate(0 0)" fill="none" stroke="#f7f7f7" stroke-miterlimit="10" stroke-width="2"/>
    <path id="Tracé_58" data-name="Tracé 58" d="M16.313,161.218c2.8,2.8,3.255,5.433,3.068,6.888l-41.015,41.009c-6.459,6.456-16.06,5.91-16.06,5.91s-.545-9.6,5.914-16.06L9.231,157.959c1.458-.187,4.088.265,6.891,3.068Z" transform="translate(14.532 9.536)" fill="none" stroke="#f7f7f7" stroke-miterlimit="10" stroke-width="2"/>
    <line id="Ligne_7" data-name="Ligne 7" x2="10.147" y2="10.148" transform="translate(15.065 175.587)" fill="none" stroke="#f7f7f7" stroke-miterlimit="10" stroke-width="2"/>
    <path id="Tracé_62" data-name="Tracé 62" d="M0,0,10.628,10.628" transform="translate(-12.208 203.813)" fill="none" stroke="#f7f7f7" stroke-width="2"/>
    <line id="Ligne_9" data-name="Ligne 9" x2="23.913" transform="translate(-23.936 169.817)" fill="none" stroke="#f7f7f7" stroke-miterlimit="10" stroke-width="2"/>
    <path id="Tracé_59" data-name="Tracé 59" d="M-33.293,155.029l-10.628,13.285-5.314-7.971" transform="translate(8.237 11.952)" fill="none" stroke="#f7f7f7" stroke-miterlimit="10" stroke-width="2"/>
    <line id="Ligne_10" data-name="Ligne 10" x2="23.913" transform="translate(-23.936 188.654)" fill="none" stroke="#f7f7f7" stroke-miterlimit="10" stroke-width="2"/>
    <line id="Ligne_11" data-name="Ligne 11" x2="18.599" transform="translate(-23.291 178.189)" fill="none" stroke="#f7f7f7" stroke-miterlimit="10" stroke-width="2"/>
    <line id="Ligne_12" data-name="Ligne 12" x2="15.942" transform="translate(-22.995 197.026)" fill="none" stroke="#f7f7f7" stroke-miterlimit="10" stroke-width="2"/>
    <path id="Tracé_60" data-name="Tracé 60" d="M-33.293,162.441l-10.628,13.285-5.314-7.971" transform="translate(8.237 22.71)" fill="none" stroke="#f7f7f7" stroke-miterlimit="10" stroke-width="2"/>
    <path id="Tracé_61" data-name="Tracé 61" d="M-33.293,169.853l-10.628,13.285-5.314-7.971" transform="translate(8.237 33.467)" fill="none" stroke="#f7f7f7" stroke-miterlimit="10" stroke-width="2"/>
  </g>
</svg>
