<svg xmlns="http://www.w3.org/2000/svg" width="3206.241" height="1746.939" viewBox="0 0 3206.241 1746.939">
  <path id="Tracé_26" data-name="Tracé 26" d="M2920.875,262.922a7.406,7.406,0,0,0-10.35-.886L2601.08,52.155a7.826,7.826,0,1,0-14.965-4.554l-259.571,1.023L2203.628-95.6a5.34,5.34,0,0,0-.7-5.879,5.337,5.337,0,0,0-7.529-.6,5.322,5.322,0,0,0-1.682,5.428L2067.8.27l-98.267-115.3a5.343,5.343,0,0,0-.7-5.882,5.338,5.338,0,0,0-5.7-1.621l-.631-.74.036.995a5.3,5.3,0,0,0-1.238.766,5.346,5.346,0,0,0-.6,7.529,5.255,5.255,0,0,0,2.177,1.505l6.347,184.672a5.419,5.419,0,0,0-1.238.763,5.322,5.322,0,0,0-1.536,2.261L1770.232,85a6.161,6.161,0,0,0-1.007-1.706,6.242,6.242,0,1,0-5.123,10.275l30.051,106.16L1562.6,259.2a8.562,8.562,0,1,0-8.214,12.6c.229.019.461.028.69.028a8.5,8.5,0,0,0,5.549-2.056c.175-.149.312-.328.473-.489l300.172,180.25a6.192,6.192,0,0,0,1,4.828L1755.246,604.126,1596.031,475.213a7.763,7.763,0,0,0-6.527-10.955,7.748,7.748,0,0,0-8.257,9.473l-195.4,101.838a7.335,7.335,0,0,0-12,1.935L1218.353,557.39l12.04-150.925a5.339,5.339,0,0,0,.785-9.823l.076-.966-.676.725a5.3,5.3,0,0,0-6.692,7.167L1097.793,538.644a5.226,5.226,0,0,0-1.418-.336,5.289,5.289,0,0,0-2.677.506L948.023,406.985a6.233,6.233,0,1,0-10.4,1.723L883.81,505.025,676.16,382.239a6.919,6.919,0,0,0,.151-.834,6.51,6.51,0,1,0-7.006,5.969h.014L754.63,729.122a6.2,6.2,0,0,0-2.7,4.128l-245.2,40.8a5.316,5.316,0,0,0-4.081-2.488c-.163-.012-.319.009-.48.012l-.208-.477-.158.484a5.312,5.312,0,0,0-3.065,9.325l-85.991,261.525a6.863,6.863,0,0,0-6.576,4.577L89.195,1035.561a8.643,8.643,0,0,0-7.845-6.983,8.794,8.794,0,0,0-3.062.319l-109-194.4a5.307,5.307,0,0,0,1.122-2.871,5.338,5.338,0,0,0-4.9-5.747,5.29,5.29,0,0,0-2.968.636l-218.723-176a5.239,5.239,0,0,0,.194-1.066,5.346,5.346,0,0,0-4.9-5.747,5.3,5.3,0,0,0-2.966.636l-.534-.43.132.69a5.321,5.321,0,0,0-2.382,4.008,5.33,5.33,0,0,0,4.227,5.624l70.419,367.3a9.88,9.88,0,0,0-6.035,8.3,9.922,9.922,0,0,0,5.246,9.532l-80.024,280.952a10.066,10.066,0,0,0-10.759,9.235,10.081,10.081,0,0,0,9.237,10.844,10.058,10.058,0,0,0,9.521-5.069l244.067,78.663a7.383,7.383,0,0,0,6.775,7.585c.2.016.406.026.607.026a7.335,7.335,0,0,0,4.783-1.767,7.347,7.347,0,0,0,1.957-2.68L148.8,1437.377,136.76,1588.39a5.338,5.338,0,0,0-.785,9.828l-.078.966.681-.725a5.241,5.241,0,0,0,6.581-2.547l231.54,18.47a10.51,10.51,0,1,0,19.514-6.515L612.1,1415.092a7.311,7.311,0,0,0,3.341,1.148,7.381,7.381,0,0,0,1.924-14.618l-17.761-174.359a5.336,5.336,0,0,0,2.779-4.261,5.4,5.4,0,0,0-.014-.619L770.526,1144.4a6.368,6.368,0,0,0,7.921,1.132l79.779,69.344a7.361,7.361,0,0,0,6.108,10.473h0c.2.017.4.026.6.026a7.313,7.313,0,0,0,7.264-8.623l210.521-101.49a5.31,5.31,0,0,0,6.425.473l311.265,211.112a7.826,7.826,0,1,0,14.963,4.556l259.592-1.007,122.9,144.209a5.336,5.336,0,1,0,9.911,1.052L2027.4,1306.6a5.322,5.322,0,0,0,6.1-.56,5.26,5.26,0,0,0,1.011-1.2l180.121,31.327a10.5,10.5,0,1,0,4.339-8.745L2095.125,1212.8a9.225,9.225,0,0,0-.555-10.305L2240.8,1034.88a7.385,7.385,0,1,0-1.066-12.753L2105.564,912.751a7.455,7.455,0,0,0,.588-2.287,7.26,7.26,0,0,0-3.006-6.531l63-171.992a6.379,6.379,0,0,0,6.4-4.8l107.615-7.526a5.151,5.151,0,0,0,.69,1.066,5.327,5.327,0,0,0,7.385.7l3.287,1.8-2.129-3.093a5.3,5.3,0,0,0-5.56-8.077l-168.8-245.281a6.884,6.884,0,0,0,.806-7.134L2281.4,309.457a10.47,10.47,0,0,0,16.411-10.953l198.732-93.626,124.617,92.834a5.329,5.329,0,0,0,10.282,2.8l276.991-29.987a7.3,7.3,0,0,0,1.179,2,7.4,7.4,0,0,0,11.262-9.6Zm-12.645,2.531a7.163,7.163,0,0,0-.234.985l-276.984,29.985a5.349,5.349,0,0,0-3.28-2.578L2596.706,56.829a7.787,7.787,0,0,0,2.068-1.231l.019-.021Zm-360.863-84.994a3.287,3.287,0,1,1-.775-2.384A3.272,3.272,0,0,1,2547.368,180.459Zm-8.072-5.891a7.263,7.263,0,0,0-1.073,1.139l-148.6-57.873a7.271,7.271,0,0,0,0-.851l197.517-63.1a6.216,6.216,0,0,0,1.945,2.072l-44.392,116.876A7.376,7.376,0,0,0,2539.3,174.568Zm-301.583,857.6-146.225,167.6a9.46,9.46,0,0,0-2.086-.834l11.153-281.894a7.33,7.33,0,0,0,2.41-1.089l134.164,109.369A7.358,7.358,0,0,0,2237.713,1032.165Zm-22.371,299.953-180.118-31.329c-.014-.059-.024-.118-.038-.177l2.885-2.221-3.589.669q-.067-.106-.142-.206l49.631-81.86a9.506,9.506,0,0,0,2.254.494c.258.021.515.031.771.031a9.349,9.349,0,0,0,5.331-1.7l123.845,114.626A10.439,10.439,0,0,0,2215.342,1332.118Zm-315.079-11.052a9.927,9.927,0,0,0-2.611-2.131l66.581-206.01,62.285,185.047a5.289,5.289,0,0,0-1.678,2.878l-123.015,22.855A9.771,9.771,0,0,0,1900.263,1321.066Zm-801.721-209.051,130.159-14.086,18.451,45.557c-.116.088-.241.149-.352.243a7.82,7.82,0,0,0-1.8,2.261ZM143.266,1591.294l126.1-135.076a5.279,5.279,0,0,0,1.413.333,5.2,5.2,0,0,0,1.562-.13L377.55,1605.94a10.41,10.41,0,0,0-2.524,4.339l-231.538-18.469A5.541,5.541,0,0,0,143.266,1591.294ZM-7.744,1409.4a7.31,7.31,0,0,0-3.015-2.089l8.405-105.4,150.717,69c-.035.215-.1.421-.118.645-.012.147.012.288.009.435L-6.983,1410.491A7.405,7.405,0,0,0-7.744,1409.4Zm-258.926-86.367a10.023,10.023,0,0,0-2.176-1.6l80.022-280.942c.229.017.458.026.688.026.064,0,.123-.014.187-.016L-143,1232.383a5.305,5.305,0,0,0-2.2,3.88,5.289,5.289,0,0,0,.128,1.553ZM73.981,1042.99c.021.026.05.042.071.069L11.727,1125.47a7.446,7.446,0,0,0-1.612-.414l-41.384-283.14,105.968,189a8.7,8.7,0,0,0-.718,12.075Zm-57.5,89.949,388.288-79.911-198.486,160.4a7.765,7.765,0,0,0-10.6,1.342L16.392,1133.405c.024-.158.071-.3.085-.466ZM507.4,778.115l245.175-40.8c.071.13.163.248.243.373l-113.265,145.7-53.835-12.047a6.045,6.045,0,0,0-8.008-4.955l-70.785-86.979A5.283,5.283,0,0,0,507.4,778.115ZM1091.675,546.8c.083.109.154.227.243.331l-86.357,173.993L991.986,576.632a7.361,7.361,0,0,0,4.662-6.267c.009-.095-.009-.182,0-.274ZM2099.808,55.629a9.008,9.008,0,0,0,4.041,4.412l-66.586,206.038L1974.976,81.034a5.3,5.3,0,0,0,1.678-2.864Zm62.231,165.682a7.353,7.353,0,0,0-5.508-2.564L2113.769,62.018l166.226,231.866c-.08.087-.17.17-.248.26l-116.169-66.314A7.376,7.376,0,0,0,2162.039,221.311Zm-10.431-.834a7.2,7.2,0,0,0-2.557,6.3l-37.844,14.788-.364-174.631,41.715,152.891A7.5,7.5,0,0,0,2151.608,220.477Zm-129.816,235.7,16.721-174.57,66.839,175.468c-.069.054-.149.092-.218.151a6.781,6.781,0,0,0-1.971,2.873Zm-8.925,106.871a4.83,4.83,0,1,1-3.689-1.7c.13,0,.262,0,.392.017A4.8,4.8,0,0,1,2012.867,563.045ZM2160.011,724.28,2056.16,738.226l-42.79-164.149c.154-.083.307-.161.458-.253L2160.555,722.6A6.4,6.4,0,0,0,2160.011,724.28Zm-74.724,474.506a9.353,9.353,0,0,0-4.079,1.822l-111.916-92.7a5.319,5.319,0,0,0-.633-4.433l127.781-186.536Zm-54.466,97.932c-.135-.021-.267-.054-.4-.064l-61.971-184.1,110.1,91.2a9.478,9.478,0,0,0,1.226,10.44,9.331,9.331,0,0,0,.678.655Zm-137.309,20.9a9.79,9.79,0,0,0-3.568.38l-67.323-124.891a7.8,7.8,0,0,0,2.207-7.5l135.806-74.942-66.9,206.991C1893.661,1317.651,1893.59,1317.625,1893.512,1317.618ZM864.473,1209.084,780.555,921.908a6.849,6.849,0,0,0,2.8-3.757l129.086-2.079a8.95,8.95,0,0,0,5.043,5.96ZM608.835,1407.291l-221.71,15.1,139.2-83.38a4.588,4.588,0,0,0,4.518.373l78.46,66.475A7.335,7.335,0,0,0,608.835,1407.291Zm-227.92,196.281L275.7,1454.053c.031-.05.066-.1.1-.149l3.615.47-3.011-2.068c.017-.08.031-.163.045-.246l92.972-22.791a9.506,9.506,0,0,0,1.25,1.947,9.344,9.344,0,0,0,5.5,3.119l6.513,168.639A10.541,10.541,0,0,0,380.915,1603.572ZM6.488,1139.239l-6.03,75.627L-177.2,1038.583,1.88,1130.945a7.784,7.784,0,0,0-.149.818A7.377,7.377,0,0,0,6.488,1139.239Zm4.1.326c.154-.031.3-.061.454-.1l134.332,219.2-141.092-140Zm563.72-264.734-18.857,20L510.01,789.719,574.526,869a5.9,5.9,0,0,0-.215,5.834Zm3,2.814a5.927,5.927,0,0,0,7.484-2.294l51.966,11.628-51.519,66.274a8.383,8.383,0,0,0-2.741-.73h0a8.334,8.334,0,0,0-2.051.113l-23.215-53.693Zm954.1-260.485a5.32,5.32,0,0,0,4.818,4.407c.177.014.345-.007.518-.009l47.76,108.362a11.42,11.42,0,0,0-1.189.82v0c-.146.125-.25.279-.39.406L1389.4,584.8ZM1589.025,728.1c-.253.045-.506.1-.754.158L1540.514,619.9a5.254,5.254,0,0,0-.255-7.562l46.663-128.821Zm243.8-52.3a5.887,5.887,0,0,0,3.97,4.272l.808,27.48-106.45-42.192Zm63.741,65.423a8.49,8.49,0,0,0,6.484,2.987c.224,0,.444-.04.666-.057l56.5,167.984-104.8,3.263a9.621,9.621,0,0,0-7.784-7.323L1841.9,713.679l52.736,20.9c-.019.146-.066.288-.078.437A8.451,8.451,0,0,0,1896.563,741.218Zm9.826-8.37a4.4,4.4,0,1,1-6.2-.5A4.376,4.376,0,0,1,1906.388,732.848ZM2007.2,574.9l1.472,166.616a5.208,5.208,0,0,0-1.361.818,5.333,5.333,0,0,0,3.982,9.372l80.154,148.9L1910.578,739.654a8.507,8.507,0,0,0-1.054-9.476c-.116-.132-.253-.232-.374-.357l97.185-155.207A8.836,8.836,0,0,0,2007.2,574.9Zm-184.367,607.11a7.728,7.728,0,0,0-2.76-1.834l26.8-252.6a9.781,9.781,0,0,0,2.351-.567l110.607,176.283a5.329,5.329,0,0,0-.952,3.642Zm-309.294-58.769a8.032,8.032,0,0,1,.9-11.3,8.012,8.012,0,1,1,10.4,12.2A8.024,8.024,0,0,1,1513.542,1123.239Zm15.329-13.063a12.121,12.121,0,0,0-17.1-1.371l0,0a12.041,12.041,0,0,0-3.129,4.206l-128.2-33.747c-.01-.061-.028-.12-.04-.182l169.674-109.043a7.778,7.778,0,0,0,4.605,2.016c.066.007.13-.007.2,0l60.184,280.122-86.953-125.532a12.019,12.019,0,0,0,.766-16.47ZM1316.84,908.167a5.141,5.141,0,0,0-.319-1.089l37.972-38.1a7.379,7.379,0,0,0,2.054.732l3.8,48.3Zm43.811-38.763a7.377,7.377,0,0,0,2.734-1.831l176.621,91.1-175.456-39.7ZM1599.76,748.468l237.02,165.46-.007.017L1703.564,888.8a7.782,7.782,0,0,0-10.442-6.742l-93.43-133.524Zm361.824,167.741,11.943,35.514a5.318,5.318,0,0,0,1.052,8.736l-11.915,139.587L1852.709,924.807a9.775,9.775,0,0,0,2.824-5.3Zm19.332,35.869a5.314,5.314,0,0,0-3.488-1.668l-11.548-34.335,120.577-3.755Zm-285.774-54.834a7.9,7.9,0,0,0,1.571-.031l16.194,39.727-34.864,5.577,16.995-45.292C1695.073,897.226,1695.106,897.24,1695.142,897.243Zm5.376-1.607a7.814,7.814,0,0,0,2.292-2.784l131.062,24.732L1717.08,936.271Zm-10.438-.848a7.966,7.966,0,0,0,1.108.978l-17.822,47.5-106.212,16.993ZM1618.629,1249.2,1558.9,971.187a7.814,7.814,0,0,0,1.874-1.373l80.18,46.8a7.021,7.021,0,0,0-.166.907,6.727,6.727,0,0,0,3.935,6.645Zm29.193-237.854a6.687,6.687,0,0,0-4.806,1.708l-80.15-46.779a7.961,7.961,0,0,0,.22-1.2L1671.7,947.7ZM1547.5,964.584a7.758,7.758,0,0,0,.326,2.011l-169.657,109.031a5.281,5.281,0,0,0-1.347-.671l-11.938-151.693Zm101.308,60.052a6.712,6.712,0,0,0,2.871-11.865l24.7-65.82,38.123-6.1,43.452,106.611-135.677,206Zm69.863-84.453,117.994-18.878a9.791,9.791,0,0,0,1.659,2.859c.156.184.345.321.513.491L1760.7,1043.3Zm123.6-13.264c.17.066.338.139.51.2l-26.74,251.976-53.464-131.172Zm124.627,171.831,11.775-137.938a5.3,5.3,0,0,0,3.684-4.882l110.52-41.632c.066.087.116.184.187.269ZM2091.63,908.042,1964.51,912l-56.895-169.156c.069-.043.132-.094.2-.139l184.3,164A7.353,7.353,0,0,0,2091.63,908.042Zm-248.117.146c-.057.012-.111.021-.168.035L1720.847,665.7l116.885,46.327ZM1713.491,666.132a5.3,5.3,0,0,0,3.452.964l122.725,242.975c-.073.059-.156.095-.227.156-.116.1-.2.22-.31.324L1602.139,745.11a12.147,12.147,0,0,0,.227-9.684Zm-117.11,79.939a8.012,8.012,0,1,1,.9-11.3A7.956,7.956,0,0,1,1596.381,746.072Zm-15.96-11.659a12.184,12.184,0,0,0-.773,9.3l-98.889,51.973-94.99-208.47Zm1.177,12.923c.128.165.215.347.352.508a12,12,0,0,0,14.377,3.065l93.423,133.514a7.543,7.543,0,0,0-1.595,6.725l-127.167,67.73a7.812,7.812,0,0,0-5.059-2.46,7.671,7.671,0,0,0-1.883.1l-71.577-157.086Zm-31.306,210.88a7.861,7.861,0,0,0-.742.742l-184.282-95.046a5.624,5.624,0,0,0-.007-2.878l113.556-59.681ZM1313.6,904.169a5.419,5.419,0,0,0-1.687-.395l-7.675-21.87,46.365-14.859Zm-5.57.971a5.334,5.334,0,0,0,7.032,8.02,5.228,5.228,0,0,0,.872-.976l44.747,10.126,12.037,152.962c-.121.062-.234.135-.35.206l-199.98-144.3a12.383,12.383,0,0,0,1.175-7.4l126.751-40.616Zm-141.411,26.894a8.417,8.417,0,0,1-6.156,1.992h0a8.457,8.457,0,0,1,.673-16.886c.222,0,.449.01.676.028a8.457,8.457,0,0,1,4.811,14.866Zm-39.99-151.781a5.311,5.311,0,0,0-1.1-3.665l81.662-142.933-46.065,279.38a11.958,11.958,0,0,0-1.271.061l-35.268-129.074A5.326,5.326,0,0,0,1126.634,780.253Zm45.673,139.609a12.6,12.6,0,0,0-7.12-6.151l46.358-281.159c.267-.012.529-.038.792-.071l86.62,246.8Zm-50.352-145.313c-.078-.009-.149-.035-.227-.043a5.329,5.329,0,0,0-1.113,10.6l35.271,129.074a12.569,12.569,0,0,0-6.95,8.443L929.9,912.446a8.794,8.794,0,0,0-1.231-3.278L1201.62,635.113ZM921.8,904.946a8.753,8.753,0,0,0-5.057,1.087l-53.305-58.707L998.708,735.707,922.755,905.116A9.12,9.12,0,0,0,921.8,904.946Zm-8.077,3.885a8.81,8.81,0,0,0-1.352,3.122l-129.081,2.082c-.05-.146-.128-.279-.184-.421l77.153-63.665Zm-133.24,1.609a6.853,6.853,0,0,0-2.365-.969L760.736,740.339,857.491,846.9ZM756.069,740.218c.172.057.35.1.532.149l17.425,169.525a6.892,6.892,0,0,0-3.237,2.866L643.995,884.383Zm11.366,176.006L589.382,957.157a8.617,8.617,0,0,0-.886-1.385l52.705-67.8Zm-388.373,499.5-13.587-144.684a5.314,5.314,0,0,0,2.684-3.58l222.258-41.552L383.228,1417.334A9.338,9.338,0,0,0,379.062,1415.729ZM575.469,966.645a8.693,8.693,0,0,0,.846.82l-78.829,158.723-78.64-73.892a6.509,6.509,0,0,0,.57-4.2Zm-99.352,207.029a5.306,5.306,0,0,0,6.068-.851l108.069,48.932-219.99,41.129Zm7.765-4.6a5.3,5.3,0,0,0-1.288-3.646l16.111-32.44,87.915,82.6Zm-4.979-5.47a5.318,5.318,0,0,0-5.433,6.917L366.344,1260.8l46.85-204.646a6.872,6.872,0,0,0,2.845-.844l79.533,74.729Zm-116.848,97.492a5.322,5.322,0,0,0-3.254,1.9l-92.187-26.627,142.009-178.691Zm138.564-131.959,79.386-159.846c.078.017.158.028.239.043L594.7,1217.539ZM581.478,965.4a4.4,4.4,0,0,1,.343-8.783c.116,0,.234,0,.35.014a4.4,4.4,0,0,1-.692,8.769Zm-4.809-11.109a8.214,8.214,0,0,0-3.089,8.7l-151.1,78.867L554.156,902.2ZM262.34,1235.136l-52.823-15.258a7.735,7.735,0,0,0-.657-3.242l190.568-154Zm-60.82-7.559a7.8,7.8,0,0,0,6.86-3.743l51.191,14.786-98.466,123.9Zm-55.111,137.9L-2.007,1297.54l5.863-73.507Zm117.436-125.626,93.553,27.021-193.8,99.13ZM374.96,1416.084a9.506,9.506,0,0,0-6.515,8.245c-.024.317.012.626.017.941l-92.986,22.794c-.08-.109-.151-.227-.241-.331l86.357-173.993Zm2.488,14.318a5.333,5.333,0,0,1-4.9-5.747,5.351,5.351,0,0,1,5.329-4.917c.139,0,.284,0,.425.016a5.341,5.341,0,1,1-.855,10.648Zm151.927-100.07c-.026,0-.047-.01-.073-.012a4.756,4.756,0,0,0-5.118,4.36,4.552,4.552,0,0,0,.019.8L392.5,1414.373l195.242-180.38ZM651,1050.053a5.271,5.271,0,0,0,2.108-.681l29.807,22.751-78.947,134.611Zm4.6-3.958a4.982,4.982,0,0,0-.253-3.4L766.549,929.51l-81.542,139.039Zm-3.185-6.281a5.321,5.321,0,0,0-5.352,9.06l-48.617,161.958L584.351,969.1a8.514,8.514,0,0,0,5.96-7.418c.014-.175-.014-.34-.012-.515l180.038-41.384ZM920.7,918.7a4.845,4.845,0,0,1-2.753-8.514,4.849,4.849,0,0,1,6.822.544A4.843,4.843,0,0,1,920.7,918.7Zm8.909-2.148,219.035,10.173a12.143,12.143,0,0,0,5.969,9.559l-68.441,169.678a5.256,5.256,0,0,0-1.505.217L928.254,919.233A8.891,8.891,0,0,0,929.608,916.553Zm160.7,191.258c-.1-.116-.215-.206-.321-.31l68.441-169.678a12.118,12.118,0,0,0,1.711.3c.34.028.685.043,1.023.043a12.468,12.468,0,0,0,2.706-.331l63.226,156.124L1090.928,1108.7A5.441,5.441,0,0,0,1090.312,1107.811Zm77.38-171.5a12.652,12.652,0,0,0,1.6-1.139c.241-.206.43-.456.652-.678L1369.6,1078.537,1231.35,1093.5Zm339.881,180.688a12,12,0,0,0,4.662,10.641l-19.705,37.237L1384.907,1084.7Zm8.3,12.567a12.255,12.255,0,0,0,3.779.6,12.083,12.083,0,0,0,5.076-1.165l85.663,123.667-114.518-85.306Zm109,127.47,0,0,134.979-204.937,52.641,129.159c-.109.083-.227.142-.333.232a7.821,7.821,0,0,0-2.71,6.7l-184.31,69.232C1625.035,1257.287,1624.967,1257.151,1624.865,1257.03Zm390.053-507.279a5.29,5.29,0,0,0,1.011-1.971l37.166-4.991L2092.461,893.8Zm.458-6.047a5.409,5.409,0,0,0-.536-.775,5.271,5.271,0,0,0-2.049-1.456l-1.4-158.669,40.661,155.973Zm-7.41-186.38a8.83,8.83,0,0,0-4.213,1.786L1873.516,453.149l143.765,6.928Zm-92.6-379.032a7.318,7.318,0,0,0,3.28-1.257L2032.2,271.1a5.331,5.331,0,0,0,.229,3.675L1870.5,444.512Zm-42.027,270.727a6.245,6.245,0,0,0-.432-1.061l161.781-169.584-17.011,177.6Zm234.189,2.2L2040.97,276.495a5.3,5.3,0,0,0,1.652-3.717l64.48-25.195Zm-66.406-182.271a4.691,4.691,0,0,0-.352-.336l65.95-204.068.373,178.622Zm113.154-45.335a3.273,3.273,0,1,1-1.144,2.235A3.27,3.27,0,0,1,2154.276,223.612Zm-41.75-167.693a5.8,5.8,0,0,1-8.16-.655,5.787,5.787,0,0,1,4.4-9.54c.156,0,.312.007.465.019a5.79,5.79,0,0,1,3.3,10.175Zm-13.63-5.194c-.023.3.014.588.017.881L1979.449,73.472l87.759-67.55,33.716,39.56A9.857,9.857,0,0,0,2098.9,50.725ZM1970.675,82.286c.135.021.265.052.4.064l61.971,184.1L1921.278,173.87a7.364,7.364,0,0,0-1.129-7.722c-.062-.073-.137-.123-.2-.191Zm-61.789,93.456a7.359,7.359,0,0,0,2.42,1.857l-44.458,263.831-67.585-238.759,108.9-27.971A7.275,7.275,0,0,0,1908.886,175.742ZM1870.617,456.1l130.52,106.193a8.8,8.8,0,0,0-.4,6.82l-107.911,68.443L1870.13,456.367A5.2,5.2,0,0,0,1870.617,456.1Zm132.007,116.689-96.958,154.848a8.329,8.329,0,0,0-1.6-.352l-10.674-85.214ZM1899.977,727.8a8.351,8.351,0,0,0-2.453,1.423,8.455,8.455,0,0,0-1.378,1.534L1841.766,709.2l-.863-29.254a5.926,5.926,0,0,0,3.672-6.919l44.971-28.522Zm-178.882-68.8,34.959-48.915,75.958,61.5-110.337-11.331A5.33,5.33,0,0,0,1721.1,658.991Zm-9.783,3.649-111.1,69.275a12.018,12.018,0,0,0-7.075-3.847L1591,479.6c.13-.035.265-.054.392-.1L1712.12,658.871A5.324,5.324,0,0,0,1711.312,662.64Zm-126.938-184.18-47.986,132.474a5.31,5.31,0,0,0-4.062,2.214l-144.448-32.92a7.1,7.1,0,0,0-.13-1.009l195.393-101.833A7.748,7.748,0,0,0,1584.374,478.459ZM1381.942,588.743,1477.109,797.6l-113.762,59.787a7.336,7.336,0,0,0-2.689-1.772ZM1350.686,862.7l-47.807,15.32-83.453-237.776,133.167,217.3a7.321,7.321,0,0,0-1.923,4.367A7.24,7.24,0,0,0,1350.686,862.7ZM1214.837,627.09a5.753,5.753,0,0,1-4.213,1.363h0a5.783,5.783,0,0,1,.439-11.548c.161,0,.321.007.482.019a5.783,5.783,0,0,1,3.294,10.166Zm-5.038-14.211a9.825,9.825,0,0,0-5.14,2.271c-.137.118-.239.26-.369.383l-100.134-68.767,109.782,14.2Zm-7.831,6.052a9.883,9.883,0,0,0-.751,2.968,9.783,9.783,0,0,0,1.6,6.175L927.569,904.445l76.492-170.614a5.319,5.319,0,0,0,4.159-8.807l87.388-176.065a5.308,5.308,0,0,0,3.223-.855ZM984.679,575.573a7.376,7.376,0,0,0,3.209,1.434l13.791,146.8a5.328,5.328,0,0,0-2.441,2.762L764.713,732.1Zm13.609,155.141L860.669,844.275l-97.14-106.982a6.235,6.235,0,0,0,.444-1.056ZM552.377,898.093,417.492,1041.166l84.992-258.484ZM194,1218.526c-.033.208-.095.4-.111.617a7.826,7.826,0,0,0,3.686,7.255l-41.318,137.961a7.708,7.708,0,0,0-2.377.3L14.556,1137.313c.047-.054.1-.1.149-.156ZM-36.28,836.356l.04.007L6.044,1125.654a7.432,7.432,0,0,0-2.283,1.63l-182.37-94.061a9.934,9.934,0,0,0,.326-1.822,9.877,9.877,0,0,0-2.339-7.21Zm-146.468,202.52L.03,1220.237l-6.019,75.478-128.568-58.856a5.309,5.309,0,0,0-4.431-5.409l-44.962-191.907A9.636,9.636,0,0,0-182.749,1038.876Zm176.41,261.208-8.523,106.9a7.71,7.71,0,0,0-.955.241l-117.911-165.455Zm163.858,79.76a7.81,7.81,0,0,0,3.623-1.7l101.845,69.937L153.217,1433.8Zm5.929-5.107a7.1,7.1,0,0,0,.26-4.168l194.639-99.555-86.8,174.889a5.3,5.3,0,0,0-3.228.851ZM386.8,1602.819l-6.515-168.634a9.433,9.433,0,0,0,6.9-7.675L609.1,1411.4c.078.21.175.411.272.614L391.48,1604.789A10.419,10.419,0,0,0,386.8,1602.819Zm225.17-200.1-78.453-66.465a4.864,4.864,0,0,0,.149-.815,4.727,4.727,0,0,0-.773-2.966l62.746-103.57,17.635,173.128A7.368,7.368,0,0,0,611.968,1402.716Zm74.237-328.075,82.886,63.266a6.568,6.568,0,0,0-.338,1.548,6.725,6.725,0,0,0,.026,1.217L602.166,1217.94Zm2.1-3.578,86.324-147.194-1.46,209.968a6.4,6.4,0,0,0-1.571.8Zm88.983,62.828L778.7,930.247l82.262,281.5-.033.024-79.8-69.367a6.321,6.321,0,0,0-3.845-8.516Zm144.242-211.1a8.839,8.839,0,0,0,3.545-.94l156.436,186.976a5.328,5.328,0,0,0-.376.938l-.683.073.584.4a5.262,5.262,0,0,0-.1,1.321l-210.519,101.49a7.4,7.4,0,0,0-2.181-1.675Zm335.9,221.417a7.822,7.822,0,0,0-6.475-2.285l-18-44.451,132.5-14.339Zm120.44-59.61,112.71,83.959-81.067,153.191q-.319-.071-.645-.113l-31.029-237.013Zm35.906,239.691a8,8,0,0,0-.631-.6l80.774-152.638,118.412,88.208a7.4,7.4,0,0,0-.463,2.769l-197.515,63.1A8.5,8.5,0,0,0,1413.777,1324.285Zm211.861-58.807,249.974,60.019-198.751.773-51.472-60.4C1625.475,1265.742,1625.562,1265.613,1625.638,1265.478Zm258.165,57.755-257.21-61.76c0-.071,0-.142,0-.213l184.32-69.235c.123.168.215.347.352.51a7.82,7.82,0,0,0,7.734,2.524l67.321,124.88-.017.012A9.855,9.855,0,0,0,1883.8,1323.233Zm4.518,8.008a5.789,5.789,0,0,1,.65-8.157,5.669,5.669,0,0,1,4.216-1.363,5.787,5.787,0,1,1-4.866,9.521Zm202.118-119.119a5.339,5.339,0,1,1-6.926-8.127l0,0a5.294,5.294,0,0,1,3.455-1.278c.144,0,.286.007.433.019a5.339,5.339,0,0,1,3.036,9.388ZM2100.9,912.378a3.287,3.287,0,1,1,.371-4.622,3.277,3.277,0,0,1-.371,4.622Zm-1.919-9.868-41.779-160.271,103.343-13.878a6.339,6.339,0,0,0,.855,1.335,6.271,6.271,0,0,0,.877.841l-62.994,171.968C2099.187,902.5,2099.087,902.512,2098.986,902.51Zm72.241-181.182a6.44,6.44,0,0,0-7.725-1.6l-143-145L2277.788,715.65l-105.545,7.382A6.391,6.391,0,0,0,2171.226,721.328Zm-157.48-162.814a8.771,8.771,0,0,0-1.683-.78l9.336-97.459,81.556,3.93a6.819,6.819,0,0,0,.6,1.562Zm97.91-102.613-.439-209.928,39.345-15.372c.076.1.132.21.213.3a7.406,7.406,0,0,0,10.43.837h0c.123-.1.213-.232.326-.34L2277.7,297.715a10.461,10.461,0,0,0,.943,8.687L2113.081,456.542A6.811,6.811,0,0,0,2111.656,455.9Zm171.68-164.42L2116.059,58.148a9.8,9.8,0,0,0,2.264-4.093L2374.9,117.476a7.338,7.338,0,0,0,1.73,4.5,7.663,7.663,0,0,0,.567.544l-86.667,168.4A10.489,10.489,0,0,0,2283.336,291.481Zm92.546-178L2133.252,53.5l191.4-.754,51.455,60.376C2376.029,113.244,2375.953,113.36,2375.882,113.478Zm160.933,67.878L2497.023,200.1l-101.329-75.487,141.04,54.929A7.4,7.4,0,0,0,2536.815,181.357Zm43.5-129.615-191.95,61.323a6.979,6.979,0,0,0-9.128-2.609l-49.2-57.727ZM2196.232-93.392a5.335,5.335,0,0,0,4.263.461L2321.152,48.646l-202.749.8a9.841,9.841,0,0,0-14.346-6.635l-33.581-39.4Zm-131.7,96.176L1974.092,72.4a5.216,5.216,0,0,0-.747-.35l-6.316-183.677ZM1768.056,92.428c.158-.111.324-.2.475-.328a6.2,6.2,0,0,0,1.931-2.987l194.523-9.7-1.522,1.17,3.544-.647c.047.073.1.144.149.215L1916.438,163.8a7.354,7.354,0,0,0-9.292,6.907l-109.007,28ZM1557.951,266.643l0,0a4.436,4.436,0,1,1,1.555-3.032A4.446,4.446,0,0,1,1557.946,266.646Zm5.638-3.443,231.685-59.506,68.507,242.018c-.137.1-.279.177-.409.284L1563.239,265.774a8.47,8.47,0,0,0,.364-1.831C1563.622,263.692,1563.591,263.449,1563.589,263.2Zm302.018,193.58c.144.043.293.061.439.092l22.933,183.115-46.585,29.547a6.062,6.062,0,0,0-6.839-.383l-77.106-62.432ZM1717.747,656.6a5.354,5.354,0,0,0-2.209-.026L1598.252,482.309l154.595,125.17Zm-339.354-78.439a3.287,3.287,0,0,1,5.4,2.762,3.283,3.283,0,1,1-5.4-2.762Zm-5.213,3.41a7.407,7.407,0,0,0,4.728,5.974l-21.352,267.747c-.154.031-.307.061-.456.1l-138.224-225.55A9.856,9.856,0,0,0,1213.9,613.2l4.126-51.708ZM1214.267,556.86,1101.08,542.217a5.343,5.343,0,0,0-.281-.761l125.416-134.348ZM941.232,410.695c.189.033.371.087.567.1a6.227,6.227,0,0,0,3.478-.747L1089.7,540.745l-1.949-.25,2.991,2.053c-.016.085-.031.168-.045.253l-95.013,23.288a7.357,7.357,0,0,0-11.454-1.682l-96.878-57.285ZM885.346,510.715l96.783,57.228a7.226,7.226,0,0,0-.227,1.248,7.371,7.371,0,0,0,.4,3.025l-218,155.122ZM674.088,385.8,881.8,508.619,759.112,728.2c-.165-.028-.324-.073-.494-.09l-85.311-341.75A6.568,6.568,0,0,0,674.088,385.8ZM89.081,1039.675l306.378,11.066L15.633,1128.908a7.455,7.455,0,0,0-.619-.959l62.417-82.534a8.679,8.679,0,0,0,2.519.624c.239.019.477.028.711.028a8.754,8.754,0,0,0,8.42-6.392Zm-8.063-6.995h0a4.646,4.646,0,0,1,2.642,8.162,4.673,4.673,0,0,1-3.386,1.094,4.644,4.644,0,0,1,.362-9.273C80.763,1032.664,80.891,1032.671,81.019,1032.68ZM-258.239,654.14l218.2,175.579a5.228,5.228,0,0,0-.194,1.061,5.3,5.3,0,0,0,.69,3.077L-183.9,1021.7a9.806,9.806,0,0,0-3.469-.962h0c-.2-.017-.383.017-.579.012Zm70.09,370.688c.151,0,.3.007.456.017a5.8,5.8,0,0,1,5.307,6.229,5.764,5.764,0,0,1-2.018,3.946,5.769,5.769,0,0,1-4.216,1.361,5.8,5.8,0,0,1-5.307-6.224A5.808,5.808,0,0,1-188.148,1024.828ZM-264.309,1326.4l121.6-85.214a5.306,5.306,0,0,0,2.41.827,5.348,5.348,0,0,0,1.6-.139L-19.177,1409.6c-.116.146-.2.312-.3.466l-244.057-78.659c.009-.09.04-.17.047-.26A9.953,9.953,0,0,0-264.309,1326.4ZM-11.244,1416.7a3.24,3.24,0,0,1-2.394.77,3.253,3.253,0,0,1-2.235-1.144,3.25,3.25,0,0,1-.773-2.391,3.258,3.258,0,0,1,1.139-2.235,3.261,3.261,0,0,1,2.124-.785c.09,0,.177,0,.267.009a3.257,3.257,0,0,1,2.238,1.146,3.26,3.26,0,0,1,.775,2.389A3.266,3.266,0,0,1-11.244,1416.7Zm8.965-3.131,151.495-37.579a7.83,7.83,0,0,0,4.2,3.53l-4.287,53.75Zm155.167,24.342,113.18,14.729a5.188,5.188,0,0,0,.284.77L140.938,1587.752Zm714.166-217.44a3.283,3.283,0,1,1-1.872-5.773,3.28,3.28,0,0,1,1.872,5.773Zm229.5-104.688,147.529,34.224a7.765,7.765,0,0,0,1.834,4.785,7.824,7.824,0,0,0,13.545-7.009l112.415-63.556a5.31,5.31,0,0,0,1.879.933l31.029,237.013a7.78,7.78,0,0,0-2.068,1.229l-.019.021Zm324.616,211.48,191.95-61.326a6.864,6.864,0,0,0,.479.692,7.391,7.391,0,0,0,7.985,2.2l1.824,2.637-.451-2.1,48.511,56.923Zm461.918,2.323a9.782,9.782,0,0,0,2.1,4.324,9.389,9.389,0,0,0,.808.761l-82.6,137.082a5.337,5.337,0,0,0-2.4.18l-120.64-141.56Zm-73.063,139.141,79.49-131.926a10.007,10.007,0,0,0,3.214.588,9.819,9.819,0,0,0,9.852-9.637L2022,1305.562Zm207.789-900.161a9.14,9.14,0,0,0,.3-1.668,8.853,8.853,0,0,0-1.413-5.515l89.8-92.749a6.927,6.927,0,0,0,5.144.428L2278.326,711.25Zm278.234-273.782c-.142-.191-.248-.4-.4-.581a10.459,10.459,0,0,0-1.46-1.4l86.667-168.4a7.337,7.337,0,0,0,5.849-1.354l106.1,79.039Zm242.5-109.695a7.392,7.392,0,1,0,9.984-10.79l44.17-116.292,30.947,236.382-.033.024-122.854-91.521Zm378.822,85.131a3.281,3.281,0,1,1,1.142-2.235A3.251,3.251,0,0,1,2917.375,270.219Z" transform="translate(283.597 123.275)" fill="#d17b53" opacity="0.343"/>
</svg>
