<svg xmlns="http://www.w3.org/2000/svg" width="109.979" height="92.041" viewBox="0 0 109.979 92.041">
  <g id="Groupe_20" data-name="Groupe 20" transform="translate(87 -196)">
    <line id="Ligne_13" data-name="Ligne 13" x2="19" y2="19" transform="translate(-67.086 234.816)" fill="none" stroke="#f7f7f7" stroke-miterlimit="10" stroke-width="2"/>
    <line id="Ligne_14" data-name="Ligne 14" x1="19" y2="19" transform="translate(-67.086 234.816)" fill="none" stroke="#f7f7f7" stroke-miterlimit="10" stroke-width="2"/>
    <path id="Tracé_63" data-name="Tracé 63" d="M-27.1,247.41v7.068a7.068,7.068,0,0,1-7.068,7.068H-55.37l-12.363,14.13a2.356,2.356,0,0,1-4.13-1.55V261.547h-7.068A7.068,7.068,0,0,1-86,254.479v-42.41A7.068,7.068,0,0,1-78.932,205h37.7" transform="translate(0 10.513)" fill="none" stroke="#f7f7f7" stroke-miterlimit="10" stroke-width="2"/>
    <path id="Tracé_64" data-name="Tracé 64" d="M-13.165,197H-57.932A7.068,7.068,0,0,0-65,204.068v42.41a7.068,7.068,0,0,0,7.068,7.068h21.205l12.363,14.13a2.357,2.357,0,0,0,4.13-1.55V253.547h7.068A7.068,7.068,0,0,0-6.1,246.479v-42.41A7.068,7.068,0,0,0-13.165,197Z" transform="translate(28.076)" fill="none" stroke="#f7f7f7" stroke-miterlimit="10" stroke-width="2"/>
    <path id="Tracé_65" data-name="Tracé 65" d="M-57,214.425l9.425,9.425L-35.795,205" transform="translate(39.012 10.761)" fill="none" stroke="#f7f7f7" stroke-miterlimit="10" stroke-width="2"/>
  </g>
</svg>
