<svg id="Groupe_29" data-name="Groupe 29" xmlns="http://www.w3.org/2000/svg" width="153.656" height="120.627" viewBox="0 0 153.656 120.627">
  <path id="Tracé_69" data-name="Tracé 69" d="M765.52,343.414l.178,0a5.165,5.165,0,0,0,4.6-7.18l21.464-19a5.081,5.081,0,0,0,2.547.694c.06,0,.12,0,.181,0a5.2,5.2,0,0,0,5.011-5.365h0a5.147,5.147,0,0,0-3.588-4.748V283.586a5.182,5.182,0,0,0,3.588-5.091h0a5.154,5.154,0,0,0-7.18-4.6l-15.19-18.184a5.187,5.187,0,0,0-8.146-6.359,4.994,4.994,0,0,0-.455.592l-42.654-13.777c0-.087.02-.172.016-.26a5.174,5.174,0,0,0-10.137-1.318H688.942a5.176,5.176,0,1,0-9.475,3.994l-26.1,27.091a5.093,5.093,0,0,0-2.5-.57,5.177,5.177,0,0,0-1.422,10.1v19.454a5.178,5.178,0,0,0,1.6,10.106c.059,0,.12,0,.18,0a5.151,5.151,0,0,0,3.9-2.018l23.684,8c0,.015,0,.029,0,.044a5.2,5.2,0,0,0,5.188,5.012l.18,0c.156-.005.3-.044.453-.062l7.962,16.65a5.171,5.171,0,0,0,3.6,8.9c.059,0,.12,0,.181,0a5.16,5.16,0,0,0,3.8-1.89l18.291,6.823c0,.1-.021.2-.018.295a5.189,5.189,0,0,0,5.182,5.013l.185,0a5.19,5.19,0,0,0,4.947-4.446l32.3-6.252A5.181,5.181,0,0,0,765.52,343.414Zm2.707-9.621a5.035,5.035,0,0,0-4.516-.411l-36.535-20,62.235.983a4.693,4.693,0,0,0,.21.5Zm21.164-22.634-63.536-1a5.081,5.081,0,0,0-.46-1.068l11.8-13.368a5.14,5.14,0,0,0,1.7.3c.061,0,.123,0,.184,0a5.181,5.181,0,0,0,4.956-4.57l22.513-4.939,23.166,23.882A5.165,5.165,0,0,0,789.392,311.16Zm-64.043-39.21,11.408-11.607a5.122,5.122,0,0,0,2.235.529c.061,0,.12,0,.18,0a5.155,5.155,0,0,0,2.029-.493l12.006,12.379-11.913,13.492a5.03,5.03,0,0,0-5.022.134L725.4,276.438a5.041,5.041,0,0,0-.048-4.488Zm10.7-16.166a2.9,2.9,0,0,1,2.786-2.987h.1a2.888,2.888,0,0,1,.1,5.773h-.1A2.892,2.892,0,0,1,736.048,255.784Zm19.393,19.274,8.485,8.747-20.1,4.412Zm-13.7,15.6a2.888,2.888,0,1,1-2.983-2.786l.1,0a2.887,2.887,0,0,1,2.881,2.789Zm50.978-7.071v24.235a5.184,5.184,0,0,0-.747.3L770.224,285.7l19.689-4.321A5.18,5.18,0,0,0,792.717,283.587Zm-21.931-25.907a5.148,5.148,0,0,0,1.992.406l.184,0a5.16,5.16,0,0,0,1.683-.361l15.247,18.251a5.175,5.175,0,0,0-.724,2.293L767.6,283l-10.036-10.346Zm-45.948-18.487L767.6,253.007c0,.022-.005.044,0,.066a5.128,5.128,0,0,0,.771,2.51l-13.036,14.765-11.811-12.176a5.129,5.129,0,0,0,.66-2.67h0a5.2,5.2,0,0,0-5.367-5.011,5.128,5.128,0,0,0-2.318.664l-11.868-11.684C724.7,239.383,724.768,239.286,724.838,239.194Zm-6.252-5.153a2.871,2.871,0,0,1,2.012-.915h.1a2.885,2.885,0,0,1,2.879,2.786h0A2.883,2.883,0,0,1,720.8,238.9a3.013,3.013,0,0,1-2.071-.773,2.888,2.888,0,0,1-.139-4.081Zm-29.705,3.75h26.95a5.184,5.184,0,0,0,4.876,3.488c.059,0,.122,0,.182,0a5.233,5.233,0,0,0,.89-.116l12.531,12.335a4.984,4.984,0,0,0,.131,4.638L723.1,269.669a5.1,5.1,0,0,0-2.571-.6,5.191,5.191,0,0,0,.174,10.378l.182,0a5.13,5.13,0,0,0,2.324-.665l10.938,10a5.106,5.106,0,0,0,.488,5.008l-11.607,13.147a5.063,5.063,0,0,0-2.306-.476,5.147,5.147,0,0,0-4.737,3.551L689,309.293a5.218,5.218,0,0,0-3.413-3.608V241A5.185,5.185,0,0,0,688.881,237.79Zm34.674,36.377h0a2.885,2.885,0,0,1-2.785,2.983,2.946,2.946,0,0,1-2.986-2.785,2.894,2.894,0,0,1,2.788-2.986h.1a2.887,2.887,0,0,1,2.88,2.788Zm-6.195,41.27a5.144,5.144,0,0,0,2.259,1.217l.373,4.613-25.559-8.628,21.542.57A5.132,5.132,0,0,0,717.36,315.438Zm-33.41-82.312h.1a2.886,2.886,0,0,1,.094,5.771,3.057,3.057,0,0,1-2.07-.773,2.888,2.888,0,0,1,1.873-5Zm-27.74,66.61c0-.114.025-.223.021-.338a5.153,5.153,0,0,0-3.587-4.749V275.208c.069-.022.136-.046.2-.071l26.468,32.4Zm-.849-26.582a5.095,5.095,0,0,0,.285-5.227L681.8,240.775a5.017,5.017,0,0,0,.588.227v64.691c-.118.038-.235.075-.348.122Zm28.71,40.27h-.1a2.887,2.887,0,0,1-.1-5.772h.1a2.887,2.887,0,0,1,.1,5.772Zm35.76,29.366c-.118.126-.206.27-.311.406l-18.18-6.783c.009-.165.038-.326.033-.5h0a5.19,5.19,0,0,0-5.366-5.009,5.276,5.276,0,0,0-.543.074l-7.941-16.6a5.271,5.271,0,0,0,.489-.527L720.27,324.74l1.356,16.812A5.17,5.17,0,0,0,719.832,342.789ZM721,314.538a2.822,2.822,0,0,1-2.068-.773,2.886,2.886,0,0,1,1.87-5h.1a2.887,2.887,0,0,1,2.881,2.786h0A2.885,2.885,0,0,1,721,314.538Zm1.817,1.91a5.137,5.137,0,0,0,1.544-.965l34.576,18.931-35.641-12.031Zm5.389,27.47a4.981,4.981,0,0,0-3.385-2.618l-1.245-15.445,35.7,12.051Z" transform="translate(-645.853 -230.895)" fill="#7e7e7e"/>
</svg>
